<?xml version="1.0" encoding="UTF-8" standalone="no"?>
<!-- Created with Inkscape (http://www.inkscape.org/) -->

<svg
   xmlns:dc="http://purl.org/dc/elements/1.1/"
   xmlns:cc="http://creativecommons.org/ns#"
   xmlns:rdf="http://www.w3.org/1999/02/22-rdf-syntax-ns#"
   xmlns:svg="http://www.w3.org/2000/svg"
   xmlns="http://www.w3.org/2000/svg"
   xmlns:sodipodi="http://sodipodi.sourceforge.net/DTD/sodipodi-0.dtd"
   xmlns:inkscape="http://www.inkscape.org/namespaces/inkscape"
   width="300"
   height="300"
   viewBox="0 0 79.374998 79.375002"
   version="1.1"
   id="svg8"
   inkscape:version="0.92.3 (2405546, 2018-03-11)"
   sodipodi:docname="favicon.svg">
  <defs
     id="defs2" />
  <sodipodi:namedview
     id="base"
     pagecolor="#ffffff"
     bordercolor="#666666"
     borderopacity="1.0"
     inkscape:pageopacity="0.0"
     inkscape:pageshadow="2"
     inkscape:zoom="1.979899"
     inkscape:cx="275.74103"
     inkscape:cy="168.19537"
     inkscape:document-units="mm"
     inkscape:current-layer="layer1"
     showgrid="false"
     units="px"
     inkscape:snap-object-midpoints="true"
     inkscape:window-width="1920"
     inkscape:window-height="995"
     inkscape:window-x="0"
     inkscape:window-y="0"
     inkscape:window-maximized="1" />
  <metadata
     id="metadata5">
    <rdf:RDF>
      <cc:Work
         rdf:about="">
        <dc:format>image/svg+xml</dc:format>
        <dc:type
           rdf:resource="http://purl.org/dc/dcmitype/StillImage" />
        <dc:title></dc:title>
      </cc:Work>
    </rdf:RDF>
  </metadata>
  <g
     inkscape:label="Layer 1"
     inkscape:groupmode="layer"
     id="layer1"
     transform="translate(0,-217.62498)">
    <g
       id="g847"
       style="fill:#00ffff;fill-opacity:1">
      <path
         inkscape:connector-curvature="0"
         id="circle819"
         d="m 33.600911,223.59442 a 10.958059,10.958059 0 0 0 -10.958384,10.95791 10.958059,10.958059 0 0 0 10.958384,10.95838 10.958059,10.958059 0 0 0 10.957907,-10.95838 10.958059,10.958059 0 0 0 -10.957907,-10.95791 z m 0,1.84687 a 9.1111939,9.1111939 0 0 1 9.111037,9.11104 9.1111939,9.1111939 0 0 1 -9.111037,9.11151 9.1111939,9.1111939 0 0 1 -9.111513,-9.11151 9.1111939,9.1111939 0 0 1 9.111513,-9.11104 z"
         style="opacity:1;vector-effect:none;fill:#00ffff;fill-opacity:1;stroke:none;stroke-width:6.80419207;stroke-linecap:butt;stroke-linejoin:miter;stroke-miterlimit:4;stroke-dasharray:none;stroke-dashoffset:0;stroke-opacity:1" />
      <circle
         r="7.8844509"
         cy="234.55257"
         cx="33.600674"
         id="path815"
         style="opacity:1;vector-effect:none;fill:#00ffff;fill-opacity:1;stroke:none;stroke-width:6.63823223;stroke-linecap:butt;stroke-linejoin:miter;stroke-miterlimit:4;stroke-dasharray:none;stroke-dashoffset:0;stroke-opacity:1" />
    </g>
    <g
       id="g851"
       style="fill:#ff0000;fill-opacity:1">
      <path
         inkscape:connector-curvature="0"
         id="path829"
         d="M 15.516784,246.35766 A 10.958059,10.958059 0 0 0 4.5583997,257.31557 10.958059,10.958059 0 0 0 15.516784,268.27395 10.958059,10.958059 0 0 0 26.474691,257.31557 10.958059,10.958059 0 0 0 15.516784,246.35766 Z m 0,1.84687 a 9.1111939,9.1111939 0 0 1 9.111037,9.11104 9.1111939,9.1111939 0 0 1 -9.111037,9.11151 9.1111939,9.1111939 0 0 1 -9.1115133,-9.11151 9.1111939,9.1111939 0 0 1 9.1115133,-9.11104 z"
         style="opacity:1;vector-effect:none;fill:#ff0000;fill-opacity:1;stroke:none;stroke-width:6.80419207;stroke-linecap:butt;stroke-linejoin:miter;stroke-miterlimit:4;stroke-dasharray:none;stroke-dashoffset:0;stroke-opacity:1" />
      <circle
         r="7.8844509"
         cy="257.3158"
         cx="15.516546"
         id="circle831"
         style="opacity:1;vector-effect:none;fill:#ff0000;fill-opacity:1;stroke:none;stroke-width:6.63823223;stroke-linecap:butt;stroke-linejoin:miter;stroke-miterlimit:4;stroke-dasharray:none;stroke-dashoffset:0;stroke-opacity:1" />
    </g>
    <g
       id="g855"
       style="fill:#ffcc00;fill-opacity:1">
      <path
         inkscape:connector-curvature="0"
         id="path833"
         d="M 31.577605,270.59091 A 10.958059,10.958059 0 0 0 20.619221,281.54882 10.958059,10.958059 0 0 0 31.577605,292.5072 10.958059,10.958059 0 0 0 42.535512,281.54882 10.958059,10.958059 0 0 0 31.577605,270.59091 Z m 0,1.84687 a 9.1111939,9.1111939 0 0 1 9.111037,9.11104 9.1111939,9.1111939 0 0 1 -9.111037,9.11151 9.1111939,9.1111939 0 0 1 -9.111513,-9.11151 9.1111939,9.1111939 0 0 1 9.111513,-9.11104 z"
         style="opacity:1;vector-effect:none;fill:#ffcc00;fill-opacity:1;stroke:none;stroke-width:6.80419207;stroke-linecap:butt;stroke-linejoin:miter;stroke-miterlimit:4;stroke-dasharray:none;stroke-dashoffset:0;stroke-opacity:1" />
      <circle
         r="7.8844509"
         cy="281.54907"
         cx="31.577368"
         id="circle835"
         style="opacity:1;vector-effect:none;fill:#ffcc00;fill-opacity:1;stroke:none;stroke-width:6.63823223;stroke-linecap:butt;stroke-linejoin:miter;stroke-miterlimit:4;stroke-dasharray:none;stroke-dashoffset:0;stroke-opacity:1" />
    </g>
    <g
       id="g859"
       style="fill:#6a3d9a;fill-opacity:1">
      <path
         inkscape:connector-curvature="0"
         id="path837"
         d="m 59.587868,262.80465 a 10.958059,10.958059 0 0 0 -10.958384,10.95791 10.958059,10.958059 0 0 0 10.958384,10.95838 10.958059,10.958059 0 0 0 10.957907,-10.95838 10.958059,10.958059 0 0 0 -10.957907,-10.95791 z m 0,1.84687 a 9.1111939,9.1111939 0 0 1 9.111037,9.11104 9.1111939,9.1111939 0 0 1 -9.111037,9.11151 9.1111939,9.1111939 0 0 1 -9.111513,-9.11151 9.1111939,9.1111939 0 0 1 9.111513,-9.11104 z"
         style="opacity:1;vector-effect:none;fill:#6a3d9a;fill-opacity:1;stroke:none;stroke-width:6.80419207;stroke-linecap:butt;stroke-linejoin:miter;stroke-miterlimit:4;stroke-dasharray:none;stroke-dashoffset:0;stroke-opacity:1" />
      <circle
         r="7.8844509"
         cy="273.76279"
         cx="59.587631"
         id="circle839"
         style="opacity:1;vector-effect:none;fill:#6a3d9a;fill-opacity:1;stroke:none;stroke-width:6.63823223;stroke-linecap:butt;stroke-linejoin:miter;stroke-miterlimit:4;stroke-dasharray:none;stroke-dashoffset:0;stroke-opacity:1" />
    </g>
    <g
       id="g863"
       style="fill:#33a02c;fill-opacity:1">
      <path
         inkscape:connector-curvature="0"
         id="path841"
         d="M 60.83834,233.75922 A 10.958059,10.958059 0 0 0 49.879956,244.71713 10.958059,10.958059 0 0 0 60.83834,255.67551 10.958059,10.958059 0 0 0 71.796247,244.71713 10.958059,10.958059 0 0 0 60.83834,233.75922 Z m 0,1.84687 a 9.1111939,9.1111939 0 0 1 9.111037,9.11104 9.1111939,9.1111939 0 0 1 -9.111037,9.11151 9.1111939,9.1111939 0 0 1 -9.111513,-9.11151 9.1111939,9.1111939 0 0 1 9.111513,-9.11104 z"
         style="opacity:1;vector-effect:none;fill:#33a02c;fill-opacity:1;stroke:none;stroke-width:6.80419207;stroke-linecap:butt;stroke-linejoin:miter;stroke-miterlimit:4;stroke-dasharray:none;stroke-dashoffset:0;stroke-opacity:1" />
      <circle
         r="7.8844509"
         cy="244.71736"
         cx="60.8381"
         id="circle843"
         style="opacity:1;vector-effect:none;fill:#33a02c;fill-opacity:1;stroke:none;stroke-width:6.63823223;stroke-linecap:butt;stroke-linejoin:miter;stroke-miterlimit:4;stroke-dasharray:none;stroke-dashoffset:0;stroke-opacity:1" />
    </g>
  </g>
</svg>
